# xmcd
#
# Track frame offsets:
# 150
# 10839
# 22769
# 33558
# 45075
# 56127
# 78388
# 94647
# 106816
# 120163
#
# Disc length: 1768 seconds
#
# Revision: 0
# Processed by: cddbd v1.5.1PL2 Copyright (c) Steve Scherf et al.
# Submitted via: Audion 3.0.2 (http://www.panic.com/audion/)
#
DISCID=6206e60a
DTITLE=the Platters - the very best of 
DYEAR=1900
DGENRE=
TTITLE0=red sails in the sunset
TTITLE1=the great pretender
TTITLE2=smoke get in your eyes
TTITLE3=only you
TTITLE4=love letters
TTITLE5=unchained melody
TTITLE6=delilah
TTITLE7=with this ring
TTITLE8=im sorry
TTITLE9=twilight time
EXTD=
EXTT0=
EXTT1=
EXTT2=
EXTT3=
EXTT4=
EXTT5=
EXTT6=
EXTT7=
EXTT8=
EXTT9=
PLAYORDER=
